<svg id="Capa_1" enable-background="new 0 0 510 510" height="512" viewBox="0 0 510 510" width="512" xmlns="http://www.w3.org/2000/svg" xmlns:xlink="http://www.w3.org/1999/xlink"><linearGradient id="lg1"><stop offset="0" stop-color="#ffdfcf"/><stop offset="1" stop-color="#ffa78f"/></linearGradient><linearGradient id="SVGID_1_" gradientUnits="userSpaceOnUse" x1=".731" x2="106.962" xlink:href="#lg1" y1="307.77" y2="307.77"/><linearGradient id="lg2"><stop offset="0" stop-color="#fee97d"/><stop offset="1" stop-color="#fac600"/></linearGradient><linearGradient id="SVGID_2_" gradientUnits="userSpaceOnUse" x1=".732" x2="106.961" xlink:href="#lg2" y1="344.454" y2="344.454"/><linearGradient id="SVGID_3_" gradientUnits="userSpaceOnUse" x1="75.731" x2="-6.293" xlink:href="#lg2" y1="344.455" y2="344.455"/><linearGradient id="SVGID_4_" gradientUnits="userSpaceOnUse" x1="37.731" x2="55.98" xlink:href="#lg2" y1="122.04" y2="122.04"/><linearGradient id="SVGID_5_" gradientUnits="userSpaceOnUse" x1="46.731" x2="46.731" y1="470" y2="508.21"><stop offset="0" stop-color="#fac600" stop-opacity="0"/><stop offset=".6865" stop-color="#d68d3d" stop-opacity=".687"/><stop offset="1" stop-color="#c5715a"/></linearGradient><linearGradient id="SVGID_6_" gradientUnits="userSpaceOnUse" x1="209" x2="315.231" xlink:href="#lg1" y1="343.77" y2="343.77"/><linearGradient id="lg3"><stop offset="0" stop-color="#7fd8f7"/><stop offset="1" stop-color="#6aa9ff"/></linearGradient><linearGradient id="SVGID_7_" gradientUnits="userSpaceOnUse" x1="209.001" x2="315.229" xlink:href="#lg3" y1="380.454" y2="380.454"/><linearGradient id="SVGID_8_" gradientUnits="userSpaceOnUse" x1="284" x2="201.976" xlink:href="#lg3" y1="380.455" y2="380.455"/><linearGradient id="SVGID_9_" gradientUnits="userSpaceOnUse" x1="246" x2="264.248" xlink:href="#lg3" y1="194.04" y2="194.04"/><linearGradient id="SVGID_10_" gradientUnits="userSpaceOnUse" x1="255" x2="255" y1="470" y2="508.21"><stop offset="0" stop-color="#3887e5" stop-opacity="0"/><stop offset=".9416" stop-color="#3887e5" stop-opacity=".942"/><stop offset="1" stop-color="#3887e5"/></linearGradient><linearGradient id="SVGID_11_" gradientUnits="userSpaceOnUse" x1="105.204" x2="211.435" xlink:href="#lg1" y1="255" y2="255"/><linearGradient id="lg4"><stop offset="0" stop-color="#ccfc5c"/><stop offset=".1591" stop-color="#c6f95a"/><stop offset=".3653" stop-color="#b6f053"/><stop offset=".5975" stop-color="#9be248"/><stop offset=".8469" stop-color="#76cf38"/><stop offset="1" stop-color="#5cc12d"/></linearGradient><linearGradient id="SVGID_12_" gradientUnits="userSpaceOnUse" x1="105.206" x2="211.434" xlink:href="#lg4" y1="291.684" y2="291.684"/><linearGradient id="SVGID_13_" gradientUnits="userSpaceOnUse" x1="180.204" x2="98.18" xlink:href="#lg4" y1="291.685" y2="291.685"/><linearGradient id="SVGID_14_" gradientUnits="userSpaceOnUse" x1="142.204" x2="160.453" xlink:href="#lg4" y1="16.5" y2="16.5"/><linearGradient id="SVGID_15_" gradientUnits="userSpaceOnUse" x1="151.204" x2="151.204" y1="470" y2="508.21"><stop offset="0" stop-color="#5cc12d" stop-opacity="0"/><stop offset=".2144" stop-color="#5dbb2d" stop-opacity=".214"/><stop offset=".4924" stop-color="#5fab2d" stop-opacity=".492"/><stop offset=".8039" stop-color="#62912d" stop-opacity=".804"/><stop offset="1" stop-color="#647c2d"/></linearGradient><linearGradient id="SVGID_16_" gradientUnits="userSpaceOnUse" x1="312.796" x2="419.027" xlink:href="#lg1" y1="283.77" y2="283.77"/><linearGradient id="lg5"><stop offset="0" stop-color="#ff7286"/><stop offset="1" stop-color="#ff4155"/></linearGradient><linearGradient id="SVGID_17_" gradientUnits="userSpaceOnUse" x1="312.797" x2="419.025" xlink:href="#lg5" y1="320.454" y2="320.454"/><linearGradient id="SVGID_18_" gradientUnits="userSpaceOnUse" x1="387.796" x2="305.771" xlink:href="#lg5" y1="320.455" y2="320.455"/><linearGradient id="SVGID_19_" gradientUnits="userSpaceOnUse" x1="349.796" x2="368.044" xlink:href="#lg5" y1="74.04" y2="74.04"/><linearGradient id="SVGID_20_" gradientUnits="userSpaceOnUse" x1="358.796" x2="358.796" y1="470" y2="508.21"><stop offset="0" stop-color="#ff4155" stop-opacity="0"/><stop offset="1" stop-color="#dc0050"/></linearGradient><linearGradient id="SVGID_21_" gradientUnits="userSpaceOnUse" x1="417.269" x2="523.5" xlink:href="#lg1" y1="387.77" y2="387.77"/><linearGradient id="lg6"><stop offset="0" stop-color="#ff9df0"/><stop offset=".3625" stop-color="#f791e8"/><stop offset="1" stop-color="#e273d3"/></linearGradient><linearGradient id="SVGID_22_" gradientUnits="userSpaceOnUse" x1="417.27" x2="523.498" xlink:href="#lg6" y1="424.454" y2="424.454"/><linearGradient id="SVGID_23_" gradientUnits="userSpaceOnUse" x1="492.269" x2="410.244" xlink:href="#lg6" y1="424.455" y2="424.455"/><linearGradient id="SVGID_24_" gradientUnits="userSpaceOnUse" x1="454.269" x2="472.517" xlink:href="#lg6" y1="282.04" y2="282.04"/><linearGradient id="SVGID_25_" gradientUnits="userSpaceOnUse" x1="463.269" x2="463.269" y1="470" y2="508.21"><stop offset="0" stop-color="#c146b6" stop-opacity="0"/><stop offset="1" stop-color="#c146b6"/></linearGradient><g><g><path d="m59.642 113.058c-5.689-10.024-20.133-10.024-25.822 0l-29.807 52.516c-2.63 4.635-4.013 9.873-4.013 15.202v311.371c0 9.86 7.993 17.853 17.853 17.853h57.756c9.86 0 17.853-7.993 17.853-17.853v-311.371c0-5.329-1.383-10.567-4.013-15.202z" fill="url(#SVGID_1_)"/><path d="m93.461 188v304.15c0 9.86-7.99 17.85-17.85 17.85h-57.76c-9.86 0-17.85-7.99-17.85-17.85v-304.15c1.58 1.28 3.5 1.91 5.43 1.91 2.22 0 4.45-.85 6.15-2.55l4.17-4.17c5.71-5.71 14.95-5.71 20.65 0 2.85 2.85 6.59 4.27 10.33 4.27s7.48-1.42 10.33-4.27 6.59-4.28 10.32-4.28c3.74 0 7.47 1.43 10.33 4.28l4.17 4.17c3.17 3.17 8.17 3.38 11.58.64z" fill="url(#SVGID_2_)"/><path d="m25.231 510h43v-331.049c-.283-.016-.566-.041-.85-.041-3.73 0-7.47 1.43-10.32 4.28s-6.59 4.27-10.33 4.27-7.48-1.42-10.33-4.27c-3.066-3.071-7.156-4.475-11.17-4.242z" fill="url(#SVGID_3_)"/><path d="m46.731 138.54c9.209 0 18.049-.673 26.298-1.897l-13.386-23.585c-5.689-10.024-20.133-10.024-25.822 0l-13.386 23.585c8.247 1.224 17.087 1.897 26.296 1.897z" fill="url(#SVGID_4_)"/><path d="m.001 384v108.15c0 9.86 7.99 17.85 17.85 17.85h57.76c9.86 0 17.85-7.99 17.85-17.85v-108.15z" fill="url(#SVGID_5_)"/></g><g><path d="m267.911 185.058c-5.689-10.024-20.133-10.024-25.822 0l-29.807 52.516c-2.63 4.635-4.013 9.872-4.013 15.202v239.371c0 9.86 7.993 17.853 17.853 17.853h57.756c9.86 0 17.853-7.993 17.853-17.853v-239.371c0-5.329-1.383-10.567-4.013-15.202z" fill="url(#SVGID_6_)"/><path d="m301.73 260v232.15c0 9.86-7.99 17.85-17.85 17.85h-57.76c-9.86 0-17.85-7.99-17.85-17.85v-232.15c1.58 1.28 3.5 1.91 5.43 1.91 2.22 0 4.45-.85 6.15-2.55l4.17-4.17c5.71-5.71 14.95-5.71 20.65 0 2.85 2.85 6.59 4.27 10.33 4.27s7.48-1.42 10.33-4.27 6.59-4.28 10.32-4.28c3.74 0 7.47 1.43 10.33 4.28l4.17 4.17c3.17 3.17 8.17 3.38 11.58.64z" fill="url(#SVGID_7_)"/><path d="m233.5 510h43v-259.049c-.283-.016-.566-.041-.85-.041-3.73 0-7.47 1.43-10.32 4.28s-6.59 4.27-10.33 4.27-7.48-1.42-10.33-4.27c-3.066-3.071-7.156-4.475-11.17-4.242z" fill="url(#SVGID_8_)"/><path d="m255 210.54c9.209 0 18.049-.673 26.298-1.897l-13.386-23.585c-5.689-10.024-20.133-10.024-25.822 0l-13.386 23.585c8.247 1.224 17.087 1.897 26.296 1.897z" fill="url(#SVGID_9_)"/><path d="m208.27 384v108.15c0 9.86 7.99 17.85 17.85 17.85h57.76c9.86 0 17.85-7.99 17.85-17.85v-108.15z" fill="url(#SVGID_10_)"/></g><g><path d="m164.115 7.518c-5.689-10.024-20.133-10.024-25.822 0l-29.807 52.516c-2.63 4.635-4.013 9.872-4.013 15.202v416.911c0 9.86 7.993 17.853 17.853 17.853h57.756c9.86 0 17.853-7.993 17.853-17.853v-416.911c0-5.329-1.383-10.567-4.013-15.202z" fill="url(#SVGID_11_)"/><path d="m197.934 82.46v409.69c0 9.86-7.99 17.85-17.85 17.85h-57.76c-9.86 0-17.85-7.99-17.85-17.85v-409.69c1.58 1.28 3.5 1.91 5.43 1.91 2.22 0 4.45-.85 6.15-2.55l4.17-4.17c5.71-5.71 14.95-5.71 20.65 0 2.85 2.85 6.59 4.27 10.33 4.27s7.48-1.42 10.33-4.27 6.59-4.28 10.32-4.28c3.74 0 7.47 1.43 10.33 4.28l4.17 4.17c3.17 3.17 8.17 3.38 11.58.64z" fill="url(#SVGID_12_)"/><path d="m129.704 510h43v-436.589c-.283-.016-.566-.041-.85-.041-3.73 0-7.47 1.43-10.32 4.28s-6.59 4.27-10.33 4.27-7.48-1.42-10.33-4.27c-3.066-3.071-7.156-4.475-11.17-4.242z" fill="url(#SVGID_13_)"/><path d="m151.204 33c9.209 0 18.049-.673 26.298-1.897l-13.387-23.585c-5.689-10.024-20.133-10.024-25.822 0l-13.386 23.585c8.248 1.224 17.088 1.897 26.297 1.897z" fill="url(#SVGID_14_)"/><path d="m104.474 384v108.15c0 9.86 7.99 17.85 17.85 17.85h57.76c9.86 0 17.85-7.99 17.85-17.85v-108.15z" fill="url(#SVGID_15_)"/></g><g><path d="m371.707 65.058c-5.689-10.024-20.133-10.024-25.822 0l-29.807 52.516c-2.63 4.635-4.013 9.872-4.013 15.202v359.371c0 9.86 7.993 17.853 17.853 17.853h57.756c9.86 0 17.853-7.993 17.853-17.853v-359.371c0-5.329-1.383-10.567-4.013-15.202z" fill="url(#SVGID_16_)"/><path d="m405.526 140v352.15c0 9.86-7.99 17.85-17.85 17.85h-57.76c-9.86 0-17.85-7.99-17.85-17.85v-352.15c1.58 1.28 3.5 1.91 5.43 1.91 2.22 0 4.45-.85 6.15-2.55l4.17-4.17c5.71-5.71 14.95-5.71 20.65 0 2.85 2.85 6.59 4.27 10.33 4.27s7.48-1.42 10.33-4.27 6.59-4.28 10.32-4.28c3.74 0 7.47 1.43 10.33 4.28l4.17 4.17c3.17 3.17 8.17 3.38 11.58.64z" fill="url(#SVGID_17_)"/><path d="m337.296 510h43v-379.049c-.283-.016-.566-.041-.85-.041-3.73 0-7.47 1.43-10.32 4.28s-6.59 4.27-10.33 4.27-7.48-1.42-10.33-4.27c-3.066-3.071-7.156-4.475-11.17-4.242z" fill="url(#SVGID_18_)"/><path d="m358.796 90.54c9.209 0 18.049-.673 26.298-1.897l-13.386-23.585c-5.689-10.024-20.133-10.024-25.822 0l-13.386 23.585c8.247 1.224 17.087 1.897 26.296 1.897z" fill="url(#SVGID_19_)"/><path d="m312.066 384v108.15c0 9.86 7.99 17.85 17.85 17.85h57.76c9.86 0 17.85-7.99 17.85-17.85v-108.15z" fill="url(#SVGID_20_)"/></g><g><path d="m476.18 273.058c-5.689-10.024-20.133-10.024-25.822 0l-29.807 52.516c-2.63 4.635-4.013 9.872-4.013 15.202v151.371c0 9.86 7.993 17.853 17.853 17.853h57.756c9.86 0 17.853-7.993 17.853-17.853v-151.371c0-5.329-1.383-10.567-4.013-15.202z" fill="url(#SVGID_21_)"/><path d="m509.999 348v144.15c0 9.86-7.99 17.85-17.85 17.85h-57.76c-9.86 0-17.85-7.99-17.85-17.85v-144.15c1.58 1.28 3.5 1.91 5.43 1.91 2.22 0 4.45-.85 6.15-2.55l4.17-4.17c5.71-5.71 14.95-5.71 20.65 0 2.85 2.85 6.59 4.27 10.33 4.27s7.48-1.42 10.33-4.27 6.59-4.28 10.32-4.28c3.74 0 7.47 1.43 10.33 4.28l4.17 4.17c3.17 3.17 8.17 3.38 11.58.64z" fill="url(#SVGID_22_)"/><path d="m441.769 510h43v-171.049c-.283-.016-.566-.041-.85-.041-3.73 0-7.47 1.43-10.32 4.28s-6.59 4.27-10.33 4.27-7.48-1.42-10.33-4.27c-3.066-3.071-7.156-4.475-11.17-4.242z" fill="url(#SVGID_23_)"/><path d="m463.269 298.54c9.209 0 18.049-.673 26.298-1.897l-13.386-23.585c-5.689-10.024-20.133-10.024-25.822 0l-13.386 23.585c8.247 1.224 17.087 1.897 26.296 1.897z" fill="url(#SVGID_24_)"/><path d="m416.539 384v108.15c0 9.86 7.99 17.85 17.85 17.85h57.76c9.86 0 17.85-7.99 17.85-17.85v-108.15z" fill="url(#SVGID_25_)"/></g></g></svg>